<svg aria-hidden="true" style="width:0;height:0;position:absolute;overflow:hidden" xmlns="http://www.w3.org/2000/svg"><defs><symbol id="icon-arrow" viewBox="0 0 32 32"><path fill="none" stroke="#d41443" style="stroke:var(--color1,#d41443)" stroke-linejoin="round" stroke-linecap="round" stroke-width="6.4" d="M9.6 3.2 22.4 16 9.6 28.8"/></symbol><symbol id="icon-telegram" viewBox="0 0 32 32"><path fill="#fff" style="fill:var(--color3,#fff)" d="m12.866 18.372-.32 4.169c.461 0 .659-.179.894-.395l2.127-1.901 4.424 3.012c.8.424 1.374.207 1.591-.687l2.889-12.687c.254-1.12-.433-1.553-1.224-1.28L6.212 14.692c-1.158.414-1.139 1.026-.188 1.299l4.348 1.261 10.118-5.901c.471-.301.904-.132.546.16l-8.179 6.852z"/></symbol><symbol id="icon-home" viewBox="0 0 32 32"><path fill="#d31342" style="fill:var(--color4,#d31342)" d="M31.6 15.44a1.331 1.331 0 0 0-.13-2.051l-.004-.003L17.173 1.733c-.315-.252-.72-.404-1.16-.404s-.845.152-1.164.407l.004-.003L.506 14.026a1.332 1.332 0 0 0-.081 2.053l.001.001.373.347c.587.587 1.547.64 2.133.16l1.067-.907V28.8c0 .8.72 1.467 1.6 1.467h5.573c.853 0 1.547-.667 1.547-1.467v-9.2h7.147v9.173c0 .8.613 1.467 1.467 1.467h5.92c.88 0 1.573-.667 1.573-1.467V15.84s.267.267.667.533c.347.32 1.12.08 1.707-.533l.4-.4z"/></symbol><symbol id="icon-github" viewBox="0 0 32 32"><path fill="#fff" style="fill:var(--color3,#fff)" d="M16 6.588c-5.176 0-9.412 4.235-9.412 9.412 0 4.414 3.096 8.414 7.209 9.412v-3.106a2.312 2.312 0 0 1-2.535-1.118l-.006-.012c-.216-.376-.593-.753-.988-.734l-.094-1.092c.847-.075 1.591.518 2.024 1.252.198.329.424.527.715.612.282.075.574.038.922-.085.094-.696.405-.96.649-1.318v-.009c-2.447-.367-3.426-1.666-3.821-2.692a4.245 4.245 0 0 1-.254-1.461c0-1.017.351-1.951.939-2.689l-.007.009c.019-.019.047-.075.038-.113-.424-1.261.094-2.306.104-2.409.48.141.565-.151 2.089.781l.264.16c.113.066.075.028.188.019A8.764 8.764 0 0 1 16 11.125a9.236 9.236 0 0 1 2.005.282l.085.019.075-.038c1.911-1.158 1.845-.781 2.353-.941.019.104.518 1.167.104 2.409-.056.169 1.656 1.732.715 4.254-.395 1.026-1.365 2.325-3.821 2.692.311.48.696.734.687 1.722v3.887c4.113-.998 7.209-4.998 7.209-9.412 0-5.176-4.235-9.412-9.412-9.412z"/></symbol><symbol id="icon-facebook" viewBox="0 0 32 32"><path fill="#fff" style="fill:var(--color3,#fff)" d="M20.442 15.981h-2.607V25.6h-3.953v-9.619H12v-3.388h1.882v-2.184c0-1.562.734-4.009 3.991-4.009l2.927.009v3.285h-2.127c-.348 0-.838.179-.838.922v1.986h2.955l-.348 3.379z"/></symbol><symbol id="icon-Burger" viewBox="0 0 46 32"><path fill="none" stroke="#d41443" style="stroke:var(--color1,#d41443)" stroke-width="2.286" d="M0 2.286h45.714M0 16h45.714M0 29.714h45.714"/></symbol><symbol id="icon-close" viewBox="0 0 32 32"><path stroke-width="2" d="m2.52 2 26.96 28M2 29.48 30 2.52"/></symbol><symbol id="icon-arrow-short-red" viewBox="0 0 26 32"><path fill="none" stroke="#d41443" style="stroke:var(--color1,#d41443)" stroke-linejoin="round" stroke-linecap="round" stroke-width="6.4" d="M5.172 3.2 19.341 16 5.172 28.8"/></symbol><symbol id="icon-arrow-short-white" viewBox="0 0 26 32"><path fill="none" stroke="#fff" style="stroke:var(--color2,#fff)" stroke-linejoin="round" stroke-linecap="round" stroke-width="6.4" d="M5.172 3.2 19.341 16 5.172 28.8"/></symbol></defs></svg>